<svg width="433" height="378" viewBox="0 0 433 378" fill="none" xmlns="http://www.w3.org/2000/svg">
<path fill-rule="evenodd" clip-rule="evenodd" d="M43.4666 172.891C39.0317 126.681 49.4756 74.5569 88.0993 46.1605C125.619 18.5758 178.254 32.5811 225.509 39.0526C267.219 44.7644 311.798 50.087 339.093 80.5331C365.92 110.456 364.783 152.371 362.042 191.345C359.344 229.702 352.4 268.77 323.931 296.094C293.725 325.084 251.098 343.684 208.131 339.066C166.721 334.615 138.428 301.9 109.878 273.088C80.2315 243.17 47.3723 213.586 43.4666 172.891Z" stroke="#775CD0" stroke-width="3"/>
<path fill-rule="evenodd" clip-rule="evenodd" d="M221.655 81.954C286.33 76.8322 360.539 82.1793 403.652 108.811C445.533 134.682 430.113 173.173 424.858 207.476C420.22 237.753 416.363 270.081 375.739 291.009C335.813 311.577 276.73 312.507 221.655 312.159C167.452 311.816 111.903 308.445 71.1269 289.081C27.8634 268.537 -1.78817 238.614 1.20812 207.476C4.0958 177.468 47.8327 155.726 86.0537 133.963C125.744 111.364 164.7 86.4646 221.655 81.954Z" stroke="#3D3BBC"/>
<path fill-rule="evenodd" clip-rule="evenodd" d="M245.022 349.119C194.323 360.192 135.002 356.474 98.1334 319.892C62.3187 284.355 70.5965 227.181 71.2521 176.698C71.8308 132.14 71.5805 84.625 101.616 51.7552C131.135 19.4498 177.834 14.8199 221.489 12.2823C264.453 9.78492 308.793 11.6443 343.068 37.7202C379.433 65.3869 405.976 107.53 406.786 153.256C407.566 197.325 375.149 231.557 347.102 265.516C317.978 300.78 289.669 339.367 245.022 349.119Z" fill="#775CD0" fill-opacity="0.7" stroke="#49348F" stroke-width="3"/>
<path fill-rule="evenodd" clip-rule="evenodd" d="M243.589 80.6344C286.681 74.352 336.127 80.9107 364.853 113.577C392.759 145.31 382.485 192.524 378.983 234.6C375.892 271.737 373.323 311.39 346.255 337.061C319.652 362.29 280.285 363.431 243.589 363.003C207.473 362.583 170.461 358.447 143.292 334.697C114.465 309.497 94.7082 272.793 96.7046 234.6C98.6287 197.791 127.771 171.123 153.237 144.429C179.683 116.708 205.64 86.167 243.589 80.6344Z" fill="#775CD0" fill-opacity="0.7"/>
<path fill-rule="evenodd" clip-rule="evenodd" d="M79.604 184.499C75.8241 141.116 85.2313 92.1319 119.504 65.3427C152.798 39.3191 199.339 52.3065 241.141 58.2354C278.038 63.4685 317.476 68.327 341.538 96.834C365.187 124.851 364.049 164.218 361.501 200.829C358.992 236.86 352.723 273.571 327.441 299.321C300.616 326.642 262.831 344.243 224.817 340.041C188.182 335.992 163.244 305.357 138.067 278.389C111.922 250.384 82.9328 222.705 79.604 184.499Z" fill="#6142BA"/>
<path fill-rule="evenodd" clip-rule="evenodd" d="M101.765 232.695C80.5508 192.681 68.931 142.114 88.846 102.985C108.192 64.9748 155.495 59.067 195.629 48.2728C231.053 38.7455 268.615 27.8586 302.015 45.6523C334.842 63.1403 349.973 101.25 362.7 137.277C375.225 172.735 384.639 210.325 372.406 244.918C359.427 281.621 332.573 313.344 296.566 324.298C261.863 334.855 226.799 315.37 193.025 299.488C157.952 282.995 120.448 267.934 101.765 232.695Z" stroke="white" stroke-opacity="0.75" stroke-width="2"/>
<path fill-rule="evenodd" clip-rule="evenodd" d="M236.833 98.3879C267.471 95.9163 301.873 103.365 320.279 129.25C338.158 154.395 328.349 189.137 323.582 220.39C319.374 247.974 315.395 277.465 294.96 295.247C274.875 312.723 247.137 311.546 221.363 309.335C195.996 307.158 170.202 302.161 152.403 283.017C133.518 262.705 121.64 234.266 125.136 205.837C128.505 178.438 150.453 160.017 169.819 141.388C189.929 122.042 209.851 100.565 236.833 98.3879Z" stroke="white" stroke-opacity="0.75" stroke-width="2"/>
<path d="M329.659 176.628L331.056 228.834L312.374 200.199L268.724 199.85L278.502 217.136C288.628 232.326 294.914 244.897 308.358 259.389C314.993 266.547 321.279 276.674 324.247 278.769C331.58 283.833 342.405 288.023 351.834 279.817C365.103 268.293 363.532 246.294 359.341 223.77C354.627 198.803 352.183 174.708 352.183 174.708L329.659 176.628Z" fill="#FFBF9D"/>
<path d="M334.897 145.026C334.897 145.026 330.882 137.343 327.739 138.042C324.596 138.74 320.231 141.534 319.707 144.153C319.183 146.772 319.882 149.042 321.104 149.042C322.85 148.518 324.421 147.645 325.818 146.597L329.834 152.359L328.088 159.692L323.898 161.787L321.453 156.724L322.501 150.962C322.501 150.962 319.533 148.518 317.961 153.057C316.39 157.597 314.469 165.978 319.183 169.819C323.374 173.136 327.913 176.279 332.453 179.247L353.405 177.501L358.468 152.883C358.468 152.883 366.675 144.327 367.198 140.835C367.722 137.343 368.246 126.867 368.246 126.867C367.198 125.994 365.627 126.169 364.754 127.217C364.579 127.391 364.405 127.74 364.405 127.915C363.008 130.883 361.611 139.439 361.611 139.439L354.627 146.073L357.421 116.042C357.421 116.042 353.23 113.249 351.484 120.058C349.738 126.867 347.818 143.629 346.945 143.629C346.072 143.629 343.627 143.629 343.977 140.137C344.326 136.645 343.278 109.757 343.278 109.757C343.278 109.757 337.167 111.153 337.691 116.741C338.215 122.328 337.866 140.137 337.691 141.534C337.516 142.931 334.897 145.026 334.897 145.026Z" fill="#FFBF9D"/>
<path d="M334.897 254.5C333.675 250.31 332.802 246.119 332.278 241.754C331.58 237.389 331.231 233.024 331.231 228.659C331.58 228.659 332.278 234.421 333.151 241.58C334.024 245.77 334.548 250.135 334.897 254.5Z" fill="#FF9A6C"/>
<path d="M340.834 170.692C340.659 170.692 340.31 169.819 339.612 168.597C337.691 165.279 334.548 163.01 330.707 162.137C329.31 161.787 328.437 161.787 328.437 161.613C328.437 161.438 329.31 161.264 330.882 161.438C334.897 161.962 338.564 164.581 340.31 168.248C340.659 168.946 340.834 169.819 340.834 170.692Z" fill="#FF9A6C"/>
<path d="M178.63 171.565L206.566 168.771L254.407 170.867L276.057 178.374L245.851 208.929L205.868 204.041L188.059 193.914L178.63 171.565Z" fill="#FFBF9D"/>
<path d="M241.661 52.6624C246.55 49.5196 247.772 42.361 245.153 37.123C242.534 31.885 236.772 28.7422 231.01 27.8692C222.455 26.647 213.9 29.4406 207.963 35.5516C204.82 38.869 202.201 43.0594 197.836 44.6308C193.995 46.0276 189.805 44.8054 185.789 45.3292C180.376 46.3768 175.837 49.6942 173.218 54.4084C170.599 59.1226 169.202 64.3606 168.678 69.7732C168.154 74.662 167.631 80.0746 164.313 83.5666C160.996 87.0586 155.758 87.757 151.742 90.2014C143.885 95.4394 141.441 105.915 146.504 113.947C148.075 116.391 150.52 118.487 150.694 121.455C150.869 124.074 149.123 126.344 148.425 128.963C146.853 135.248 150.52 141.534 156.805 143.28C157.329 143.454 157.853 143.454 158.377 143.629C161.869 143.804 165.361 142.581 168.504 143.978C171.646 145.375 172.694 149.216 174.615 152.01C178.805 157.597 186.138 159.518 192.424 156.549C194.868 155.327 197.313 153.232 200.106 153.407C202.9 153.581 205.17 156.026 207.789 156.549C211.455 157.248 214.773 154.629 216.868 151.661C218.963 148.692 220.534 145.2 223.153 142.756C226.82 139.613 231.709 138.74 236.248 137.169C255.629 130.534 265.93 109.407 259.296 90.0268C258.772 88.4554 258.073 86.7094 257.2 85.138" fill="#263238"/>
<path d="M189.63 116.915C188.583 115.693 187.186 114.82 185.614 114.296H185.964C185.614 114.296 185.44 114.122 185.091 114.122C184.043 113.772 182.995 113.947 181.948 114.471C180.202 115.169 178.805 116.391 177.932 117.963C176.535 120.931 176.884 124.423 178.98 127.042C180.9 130.185 185.091 131.058 188.233 129.137C189.805 128.09 190.852 126.518 191.202 124.772C191.9 121.979 191.376 119.185 189.63 116.915Z" fill="#455A64"/>
<path d="M254.407 170.867L259.645 74.8366C259.819 70.6462 256.851 66.9796 252.661 66.2812L209.709 54.0592C195.916 52.1386 186.138 69.0748 184.916 82.8682C183.519 98.233 182.472 117.09 183.868 128.788C186.837 152.184 205.868 155.676 205.868 155.676C205.868 155.676 206.043 179.422 205.868 187.803L220.185 218.707L254.407 170.867Z" fill="#FFBF9D"/>
<path d="M193.646 100.503C193.646 102.074 194.868 103.471 196.44 103.646C198.011 103.82 199.408 102.773 199.582 101.201C199.582 101.201 199.582 101.201 199.582 101.027C199.582 99.4552 198.36 98.0584 196.789 97.8838C195.217 97.7092 193.821 98.9314 193.646 100.503Z" fill="#263238"/>
<path d="M188.757 91.4236C189.106 91.7728 191.376 90.2014 194.694 90.376C198.011 90.5506 200.106 92.122 200.63 91.7728C201.154 91.4236 200.455 90.8998 199.408 90.2014C198.011 89.1538 196.44 88.63 194.694 88.63C192.948 88.63 191.376 89.1538 189.979 90.0268C188.932 90.5506 188.583 91.249 188.757 91.4236Z" fill="#263238"/>
<path d="M222.28 101.201C222.106 102.773 223.328 104.169 225.074 104.344C226.645 104.519 228.042 103.471 228.217 101.9C228.217 101.9 228.217 101.9 228.217 101.725C228.217 100.154 226.995 98.7568 225.423 98.5822C223.852 98.5822 222.455 99.6298 222.28 101.201Z" fill="#263238"/>
<path d="M220.185 92.8204C220.534 93.1696 222.804 91.5982 226.122 91.7728C229.439 91.9474 231.534 93.5188 232.058 93.1696C232.582 92.8204 231.883 92.2966 230.836 91.5982C229.439 90.5506 227.868 90.0268 226.122 90.0268C224.376 90.0268 222.804 90.376 221.407 91.4236C220.36 91.9474 220.011 92.6458 220.185 92.8204Z" fill="#263238"/>
<path d="M207.963 116.217C206.217 115.693 204.471 115.344 202.725 115.169C201.852 114.995 201.154 114.82 200.979 114.296C200.979 113.423 201.154 112.55 201.678 111.852C202.551 109.931 203.424 107.836 204.297 105.741C207.963 97.0108 210.582 89.8522 210.233 89.6776C209.884 89.503 206.741 96.487 203.074 105.217C202.201 107.312 201.328 109.407 200.63 111.328C200.106 112.376 199.932 113.423 200.106 114.471C200.281 114.995 200.805 115.518 201.503 115.693C202.027 115.868 202.376 115.868 202.9 115.868C204.297 116.391 206.217 116.391 207.963 116.217Z" fill="#263238"/>
<path d="M206.043 155.676C216.519 156.026 226.82 153.407 235.899 148.169C235.899 148.169 229.264 165.454 206.043 162.486V155.676Z" fill="#FF9A6C"/>
<path d="M208.138 123.899C209.709 121.804 212.154 120.582 214.773 120.582C216.519 120.582 218.09 121.629 218.963 123.026C220.36 125.296 219.487 128.09 217.392 129.486C216.169 130.185 214.773 130.359 213.55 130.01C211.804 129.312 210.233 128.264 209.011 127.042C208.662 126.693 208.312 126.344 207.963 125.82C207.614 125.121 207.614 124.423 208.138 123.899Z" fill="#FF9A6C"/>
<path d="M217.217 118.661C216.693 118.661 216.519 122.153 213.55 124.423C210.582 126.693 206.741 126.344 206.741 126.867C206.741 127.391 207.614 127.566 209.185 127.566C211.281 127.74 213.201 127.042 214.773 125.82C216.344 124.598 217.392 122.852 217.566 120.931C217.915 119.534 217.566 118.661 217.217 118.661Z" fill="#263238"/>
<path d="M219.138 79.7254C219.487 80.5984 222.63 80.2492 226.296 80.773C229.963 81.2968 233.106 82.3444 233.629 81.646C233.804 81.2968 233.28 80.4238 232.233 79.5508C230.661 78.5032 228.741 77.8048 226.82 77.4556C224.899 77.1064 222.979 77.281 221.058 77.9794C219.836 78.6778 219.138 79.2016 219.138 79.7254Z" fill="#263238"/>
<path d="M190.329 80.4238C190.852 81.1222 193.122 80.4238 195.741 80.5984C198.36 80.773 200.63 81.2968 201.154 80.4238C201.328 80.0746 200.979 79.3762 200.106 78.6778C198.884 77.8048 197.313 77.281 195.741 77.281C194.17 77.281 192.598 77.8048 191.376 78.6778C190.329 79.3762 189.979 80.0746 190.329 80.4238Z" fill="#263238"/>
<path d="M169.377 76.5826C170.25 73.0906 172.519 69.9478 175.488 67.8526C177.234 66.9796 178.98 65.932 180.726 64.8844C184.043 62.0908 184.916 57.5512 186.837 53.71C189.63 48.8212 194.519 45.5038 200.106 44.8054C204.646 44.2816 209.36 45.6784 213.9 44.6308C217.217 43.7578 220.185 41.6626 223.503 40.9642C229.963 39.742 236.074 44.4562 240.788 48.9958C240.788 53.71 237.121 56.8528 233.455 59.821C229.788 62.7892 225.074 64.186 220.36 63.313C216.868 62.6146 212.852 60.8686 209.709 62.7892C206.566 64.7098 206.392 69.5986 203.424 72.2176C199.233 75.7096 192.773 72.3922 187.535 73.9636C183.519 75.1858 180.9 79.027 178.281 82.3444C175.662 85.6618 171.646 88.63 167.631 87.4078C167.98 83.7412 168.504 80.0746 169.377 76.5826Z" fill="#263238"/>
<path d="M218.265 56.8528C221.233 55.9798 227.169 54.0592 228.741 51.6148C232.233 46.2022 238.169 42.361 244.28 42.7102C250.74 43.234 256.153 47.9482 257.55 54.4084C265.407 54.7576 272.391 59.1226 275.708 66.1066C276.232 66.9796 276.581 67.8526 276.93 68.9002C279.2 73.0906 279.724 77.9794 277.978 82.519C276.93 85.138 275.184 88.1062 276.581 90.5506C277.978 92.995 281.47 93.1696 284.263 94.0426C289.152 95.7886 291.946 100.852 291.073 106.09C290.374 107.836 290.2 109.582 290.2 111.328C290.898 113.074 291.946 114.645 293.343 115.868C298.057 121.455 297.533 129.836 291.946 134.724C290.2 136.296 287.93 137.343 285.66 137.693C283.565 138.042 281.295 138.042 279.549 139.089C277.454 140.312 276.581 142.756 275.184 144.851C272.216 148.692 267.327 150.089 262.788 148.692C261.915 148.343 261.042 147.994 260.343 147.47C258.597 149.74 255.804 150.962 253.01 150.788L253.883 101.9C253.359 103.122 252.312 103.995 250.915 104.169C243.058 105.915 242.01 89.8522 243.756 85.4872C240.788 83.0428 238.169 80.2492 235.899 77.281C233.804 74.1382 231.883 65.4082 232.233 61.3924C229.09 61.2178 217.042 57.202 218.265 56.8528Z" fill="#263238"/>
<path d="M251.439 105.566C251.613 100.503 257.724 99.4552 262.089 102.074C264.534 103.471 266.28 106.265 266.105 111.503C265.581 125.645 251.613 122.153 251.613 121.629C251.613 121.106 251.089 111.328 251.439 105.566Z" fill="#FFBF9D"/>
<path d="M255.978 116.391C255.978 116.391 256.153 116.566 256.677 116.741C257.2 117.09 257.899 117.09 258.597 116.915C260.169 116.391 261.391 114.122 261.565 111.503C261.565 110.28 261.391 109.058 261.042 108.011C260.867 107.138 260.169 106.439 259.296 106.09C258.772 105.915 258.073 106.09 257.899 106.788C257.724 107.138 257.724 107.487 257.724 107.487C257.724 107.487 257.375 107.312 257.55 106.614C257.724 106.265 257.899 105.915 258.073 105.741C258.423 105.392 258.946 105.392 259.47 105.392C260.692 105.741 261.565 106.614 261.915 107.661C262.438 108.884 262.613 110.28 262.613 111.677C262.438 114.471 260.867 117.09 258.772 117.614C258.073 117.788 257.2 117.614 256.502 117.09C255.978 116.741 255.978 116.391 255.978 116.391Z" fill="#FF9A6C"/>
<path d="M237.645 53.0116C238.693 53.5354 239.74 54.4084 240.439 55.2814C241.836 57.202 242.359 60.8686 241.486 65.059L241.312 65.4082H241.661C245.677 66.4558 249.169 69.424 250.74 73.4398C251.089 74.4874 251.439 75.7096 251.439 76.9318C251.439 78.154 251.264 79.3762 251.089 80.5984C250.74 81.9952 250.566 83.2174 250.566 84.6142C250.391 86.011 250.915 87.5824 251.613 88.8046C253.534 91.0744 255.804 92.995 258.597 94.0426C261.042 95.0902 263.137 96.487 265.057 98.233C268.2 101.376 270.121 105.566 270.295 110.106C270.47 113.074 269.772 116.042 268.375 118.836C267.502 120.756 266.629 121.629 266.803 121.804C266.978 121.979 266.978 121.629 267.502 121.106C268.026 120.407 268.549 119.709 268.899 119.01C272.74 112.026 271.518 103.296 265.756 97.7092C263.835 95.7886 261.565 94.3918 258.946 93.1696C256.327 92.122 254.058 90.376 252.312 88.2808C250.74 86.1856 251.439 83.392 251.788 80.773C252.137 79.5508 252.137 78.154 252.137 76.9318C252.137 75.7096 251.788 74.3128 251.264 73.2652C249.518 69.0748 245.851 65.932 241.486 64.8844L241.836 65.2336C242.709 60.8686 242.01 57.202 240.439 55.1068C239.915 54.4084 239.042 53.71 238.169 53.3608C238.344 53.3608 237.994 53.1862 237.645 53.0116Z" fill="#455A64"/>
<path d="M261.216 121.629C260.169 120.407 258.772 119.534 257.2 119.01H257.55C257.2 119.01 257.026 118.836 256.677 118.836C255.629 118.487 254.581 118.661 253.534 119.185C251.788 119.883 250.391 121.106 249.518 122.677C248.121 125.645 248.47 129.137 250.566 131.756C252.486 134.899 256.677 135.772 259.819 133.851C261.391 132.804 262.438 131.232 262.788 129.486C263.661 126.867 262.962 123.899 261.216 121.629Z" fill="#455A64"/>
<path d="M287.755 303.388L287.93 244.373L293.343 255.198L327.739 220.977C327.739 220.977 311.152 190.771 303.469 184.835C295.787 178.898 265.756 172.962 263.835 171.74C263.835 171.74 255.978 184.835 231.709 192.168C207.439 199.501 187.011 168.073 187.011 168.073L159.424 169.295C159.424 169.295 157.155 210.675 156.631 239.135C156.456 247.516 156.98 254.675 157.155 259.389C158.028 279.992 178.805 315.435 178.805 315.435C178.805 315.435 208.312 325.911 239.566 322.07C270.819 318.229 287.755 303.388 287.755 303.388Z" fill="#EED7FF"/>
<path d="M159.424 169.47C145.107 172.438 132.187 190.596 116.822 226.215L158.726 257.468L159.424 169.47Z" fill="#EED7FF"/>
<path d="M289.851 208.056C290.025 208.58 290.025 209.279 290.025 209.977C290.2 211.199 290.2 212.945 290.2 215.04C290.374 219.405 290.374 225.342 289.851 231.802C289.327 238.262 288.803 244.199 288.105 248.564C287.755 250.659 287.406 252.405 287.232 253.627C287.232 254.151 287.057 254.849 286.708 255.373C286.708 253.103 287.057 250.659 287.406 248.389C287.93 244.199 288.454 238.262 288.803 231.627C289.152 224.993 289.327 219.231 289.327 214.866C289.501 212.596 289.501 210.326 289.851 208.056Z" fill="#BC9EDD"/>
<path d="M160.821 198.803C160.821 199.501 160.821 200.374 160.647 201.072C160.472 202.818 160.123 204.914 159.774 207.358C159.075 212.596 158.028 219.929 157.329 227.961C156.805 234.945 156.631 241.754 156.98 248.738C157.155 251.183 157.155 253.278 157.329 255.024C157.329 255.722 157.329 256.595 157.329 257.294C157.155 256.595 156.98 255.722 156.98 255.024C156.805 253.452 156.631 251.357 156.282 248.738C155.758 241.754 155.758 234.77 156.282 227.786C156.805 220.802 157.853 213.993 159.075 207.183C159.599 204.564 159.948 202.469 160.297 200.898C160.297 200.374 160.472 199.676 160.821 198.803Z" fill="#BC9EDD"/>
<path d="M226.645 220.453L228.042 276.849C228.042 279.642 225.772 282.087 222.979 282.087L199.233 282.611C196.44 282.611 194.17 280.515 193.995 277.722L190.154 221.85C189.979 218.882 192.249 216.437 195.043 216.263L221.233 215.04C224.026 215.215 226.471 217.485 226.645 220.453C226.471 220.453 226.471 220.453 226.645 220.453Z" fill="#263238"/>
<path d="M205.868 226.913C205.868 228.135 206.916 229.008 208.138 229.008C209.36 229.008 210.233 227.961 210.233 226.739C210.233 225.516 209.185 224.643 207.963 224.643C206.741 224.643 205.868 225.691 205.868 226.913Z" fill="white"/>
<path d="M191.202 234.945C191.202 234.945 184.741 243.326 182.472 246.992C180.202 250.659 179.678 262.357 179.678 262.357V270.563L166.758 276.325L176.71 304.086L196.265 287.15L215.995 283.484C215.995 283.484 225.074 274.055 226.471 269.865C227.344 267.42 227.693 264.976 227.518 262.532C229.264 258.167 231.01 253.802 232.233 249.262C232.756 246.119 232.931 242.976 232.756 239.834C232.756 239.834 230.312 239.135 228.217 243.5L231.36 236.342C231.36 236.342 229.264 231.104 224.899 236.516C220.534 241.929 213.201 251.008 213.201 251.008L204.82 258.341L203.773 257.119C203.773 257.119 218.439 237.564 217.915 234.072C217.392 230.58 214.249 230.754 210.931 234.421C207.614 238.088 194.519 256.595 192.773 256.944C191.027 257.294 190.329 254.675 190.329 254.675L191.202 247.865L191.9 246.468L191.202 234.945Z" fill="#FFBF9D"/>
<path d="M216.519 262.182C216.693 262.008 216.868 261.659 217.042 261.484C217.392 260.96 217.915 260.262 218.614 259.563C219.836 257.817 221.407 255.373 223.153 252.754C224.899 250.135 226.296 247.516 227.344 245.595C227.868 244.722 228.217 243.849 228.391 243.326C228.566 242.976 228.741 242.802 228.741 242.453C228.566 242.627 228.391 242.976 228.217 243.151L226.995 245.246C225.947 246.992 224.55 249.611 222.804 252.23C221.058 254.849 219.487 257.468 218.439 259.214C217.915 260.087 217.392 260.786 217.042 261.309C216.693 261.659 216.693 262.008 216.519 262.182Z" fill="#FF9A6C"/>
<path d="M221.058 270.912C222.455 269.166 223.852 267.246 225.074 265.325C226.471 263.405 227.518 261.484 228.741 259.389C227.344 261.135 225.947 263.055 224.725 264.976C223.328 266.897 222.106 268.992 221.058 270.912Z" fill="#FF9A6C"/>
<path d="M122.758 230.58C122.758 230.58 100.933 287.674 99.8858 307.404C99.0128 325.388 114.552 336.213 126.25 334.467C153.837 330.451 196.265 286.976 196.265 286.976L180.376 270.039L143.187 286.626L154.71 254.325L122.758 230.58Z" fill="#FFBF9D"/>
</svg>
